<svg width="896" height="288" viewBox="0 0 896 288" fill="none" xmlns="http://www.w3.org/2000/svg">
<path d="M256.34 138.436V77.9505H268.96V138.436H256.34ZM283.298 102.713V96.6238C285.198 96.1907 286.745 95.4059 287.939 94.2693C289.188 93.0786 290.002 91.6984 290.382 90.1287H284.927V77.9505H297.14V85.0139C297.14 89.7768 295.973 93.701 293.639 96.7861C291.305 99.8172 287.858 101.793 283.298 102.713ZM310.227 138.436V94.1069H321.626V104.905L320.404 103.119C321.056 99.7089 322.63 97.1921 325.127 95.5683C327.624 93.9446 330.609 93.1327 334.083 93.1327C337.774 93.1327 341.003 94.0798 343.772 95.9743C346.594 97.8145 348.358 100.304 349.064 103.444L345.563 103.768C347.028 100.142 349.118 97.4628 351.832 95.7307C354.546 93.9986 357.721 93.1327 361.358 93.1327C364.561 93.1327 367.383 93.8363 369.826 95.2436C372.323 96.6509 374.277 98.6264 375.689 101.17C377.099 103.66 377.805 106.583 377.805 109.939V138.436H365.592V112.537C365.592 110.805 365.266 109.316 364.615 108.071C364.018 106.826 363.149 105.852 362.01 105.149C360.87 104.445 359.486 104.093 357.857 104.093C356.283 104.093 354.899 104.445 353.705 105.149C352.565 105.852 351.669 106.826 351.018 108.071C350.421 109.316 350.122 110.805 350.122 112.537V138.436H337.91V112.537C337.91 110.805 337.584 109.316 336.933 108.071C336.335 106.826 335.467 105.852 334.327 105.149C333.187 104.445 331.803 104.093 330.175 104.093C328.601 104.093 327.216 104.445 326.022 105.149C324.883 105.852 323.987 106.826 323.336 108.071C322.738 109.316 322.44 110.805 322.44 112.537V138.436H310.227Z" fill="white"/>
<path d="M398.68 138.436V127.069H402.345C404.788 127.069 406.742 126.393 408.207 125.04C409.727 123.632 410.487 121.792 410.487 119.519V77.9505H423.107V118.95C423.107 122.848 422.265 126.257 420.583 129.18C418.899 132.103 416.484 134.376 413.337 136C410.243 137.624 406.579 138.436 402.345 138.436H398.68ZM454.167 139.41C449.444 139.41 445.346 138.382 441.872 136.325C438.397 134.214 435.711 131.399 433.812 127.881C431.912 124.363 430.962 120.466 430.962 116.19C430.962 111.752 431.939 107.801 433.893 104.337C435.901 100.873 438.588 98.1392 441.954 96.1366C445.318 94.1341 449.119 93.1327 453.352 93.1327C456.88 93.1327 460.001 93.701 462.716 94.8376C465.429 95.9202 467.708 97.4628 469.555 99.4654C471.454 101.468 472.893 103.795 473.87 106.448C474.847 109.046 475.336 111.887 475.336 114.972C475.336 115.838 475.28 116.704 475.173 117.57C475.117 118.382 474.982 119.086 474.766 119.681H441.465V110.751H467.845L462.064 114.972C462.607 112.645 462.579 110.588 461.983 108.802C461.385 106.962 460.327 105.527 458.808 104.499C457.342 103.416 455.523 102.875 453.352 102.875C451.236 102.875 449.417 103.389 447.897 104.418C446.377 105.446 445.237 106.962 444.478 108.964C443.717 110.967 443.419 113.403 443.582 116.271C443.364 118.761 443.664 120.953 444.478 122.848C445.292 124.742 446.539 126.23 448.223 127.313C449.905 128.341 451.941 128.855 454.33 128.855C456.5 128.855 458.345 128.422 459.866 127.556C461.439 126.69 462.66 125.5 463.53 123.984L473.3 128.612C472.431 130.777 471.046 132.671 469.148 134.295C467.301 135.919 465.103 137.191 462.553 138.111C460.001 138.977 457.205 139.41 454.167 139.41ZM482.527 138.436V76.9762H494.739V102.875L493.274 100.927C494.305 98.2746 495.961 96.3261 498.24 95.0812C500.574 93.7822 503.288 93.1327 506.382 93.1327C509.748 93.1327 512.679 93.8363 515.176 95.2436C517.727 96.6509 519.707 98.6264 521.119 101.17C522.531 103.66 523.236 106.583 523.236 109.939V138.436H511.023V112.537C511.023 110.805 510.67 109.316 509.965 108.071C509.313 106.826 508.364 105.852 507.115 105.149C505.921 104.445 504.51 104.093 502.881 104.093C501.307 104.093 499.896 104.445 498.647 105.149C497.398 105.852 496.421 106.826 495.716 108.071C495.065 109.316 494.739 110.805 494.739 112.537V138.436H482.527ZM531.267 138.436V94.1069H543.48V138.436H531.267ZM531.267 90.1287V77.9505H543.48V90.1287H531.267ZM566.176 139.41C562.973 139.41 560.205 138.896 557.872 137.867C555.538 136.839 553.747 135.378 552.498 133.483C551.249 131.535 550.625 129.234 550.625 126.582C550.625 124.092 551.195 121.9 552.335 120.006C553.475 118.057 555.212 116.434 557.546 115.135C559.935 113.836 562.892 112.915 566.421 112.374L580.018 110.182V119.113L568.619 121.143C566.881 121.467 565.553 122.036 564.629 122.848C563.706 123.605 563.245 124.715 563.245 126.176C563.245 127.529 563.761 128.585 564.792 129.343C565.823 130.1 567.1 130.479 568.619 130.479C570.627 130.479 572.392 130.046 573.911 129.18C575.43 128.314 576.598 127.151 577.412 125.689C578.28 124.174 578.715 122.523 578.715 120.737V109.208C578.715 107.53 578.036 106.123 576.679 104.986C575.377 103.85 573.585 103.281 571.306 103.281C569.135 103.281 567.207 103.877 565.525 105.067C563.897 106.258 562.703 107.828 561.943 109.776L552.172 105.149C553.04 102.659 554.424 100.521 556.325 98.7347C558.225 96.9485 560.505 95.5683 563.164 94.5941C565.823 93.6198 568.728 93.1327 571.876 93.1327C575.621 93.1327 578.931 93.8093 581.809 95.1624C584.686 96.5155 586.91 98.4099 588.485 100.846C590.113 103.227 590.928 106.014 590.928 109.208V138.436H579.529V131.291L582.297 130.804C580.995 132.752 579.557 134.376 577.982 135.675C576.407 136.92 574.644 137.84 572.69 138.436C570.736 139.085 568.565 139.41 566.176 139.41ZM599.884 138.436V94.1069H611.282V102.875L610.631 100.927C611.663 98.2746 613.318 96.3261 615.598 95.0812C617.933 93.7822 620.646 93.1327 623.739 93.1327C627.105 93.1327 630.036 93.8363 632.533 95.2436C635.084 96.6509 637.066 98.6264 638.476 101.17C639.888 103.66 640.593 106.583 640.593 109.939V138.436H628.38V112.537C628.38 110.805 628.029 109.316 627.322 108.071C626.671 106.826 625.721 105.852 624.472 105.149C623.279 104.445 621.867 104.093 620.238 104.093C618.665 104.093 617.254 104.445 616.005 105.149C614.757 105.852 613.78 106.826 613.074 108.071C612.422 109.316 612.097 110.805 612.097 112.537V138.436H599.884Z" fill="url(#paint0_linear_1246_140)"/>
<path d="M208.622 179.03V164.513H217.845V166.267H210.537V170.963H217.161V172.717H210.537V179.03H208.622ZM219.208 179.03V168.527H220.986V170.456L220.79 170.183C221.038 169.586 221.416 169.144 221.924 168.858C222.432 168.56 223.051 168.41 223.78 168.41H224.425V170.125H223.507C222.764 170.125 222.165 170.359 221.709 170.826C221.253 171.281 221.025 171.931 221.025 172.775V179.03H219.208ZM230.885 179.264C229.869 179.264 228.964 179.023 228.169 178.543C227.374 178.062 226.749 177.406 226.293 176.575C225.837 175.73 225.609 174.788 225.609 173.749C225.609 172.697 225.831 171.762 226.274 170.943C226.73 170.125 227.342 169.482 228.11 169.014C228.892 168.534 229.765 168.293 230.729 168.293C231.51 168.293 232.201 168.436 232.8 168.722C233.412 168.995 233.927 169.372 234.344 169.852C234.774 170.32 235.099 170.859 235.321 171.469C235.555 172.067 235.673 172.691 235.673 173.34C235.673 173.483 235.66 173.645 235.634 173.827C235.621 173.996 235.601 174.158 235.575 174.314H226.938V172.755H234.52L233.66 173.457C233.777 172.781 233.712 172.177 233.465 171.645C233.217 171.112 232.852 170.69 232.37 170.378C231.888 170.067 231.341 169.911 230.729 169.911C230.117 169.911 229.556 170.067 229.048 170.378C228.54 170.69 228.143 171.138 227.856 171.723C227.583 172.294 227.472 172.976 227.524 173.769C227.472 174.535 227.589 175.211 227.876 175.795C228.176 176.367 228.592 176.815 229.127 177.14C229.674 177.451 230.266 177.607 230.905 177.607C231.608 177.607 232.201 177.445 232.683 177.12C233.165 176.795 233.556 176.38 233.855 175.873L235.38 176.653C235.171 177.133 234.845 177.575 234.402 177.978C233.973 178.367 233.458 178.679 232.859 178.913C232.273 179.147 231.615 179.264 230.885 179.264ZM242.888 179.264C241.872 179.264 240.967 179.023 240.172 178.543C239.377 178.062 238.752 177.406 238.296 176.575C237.84 175.73 237.612 174.788 237.612 173.749C237.612 172.697 237.834 171.762 238.277 170.943C238.732 170.125 239.345 169.482 240.113 169.014C240.895 168.534 241.768 168.293 242.732 168.293C243.513 168.293 244.204 168.436 244.803 168.722C245.415 168.995 245.93 169.372 246.347 169.852C246.777 170.32 247.102 170.859 247.324 171.469C247.558 172.067 247.676 172.691 247.676 173.34C247.676 173.483 247.663 173.645 247.636 173.827C247.623 173.996 247.604 174.158 247.578 174.314H238.941V172.755H246.523L245.663 173.457C245.78 172.781 245.715 172.177 245.467 171.645C245.22 171.112 244.855 170.69 244.373 170.378C243.891 170.067 243.344 169.911 242.732 169.911C242.12 169.911 241.559 170.067 241.051 170.378C240.543 170.69 240.146 171.138 239.859 171.723C239.586 172.294 239.475 172.976 239.527 173.769C239.475 174.535 239.592 175.211 239.879 175.795C240.178 176.367 240.595 176.815 241.129 177.14C241.677 177.451 242.269 177.607 242.908 177.607C243.611 177.607 244.204 177.445 244.686 177.12C245.168 176.795 245.559 176.38 245.858 175.873L247.382 176.653C247.174 177.133 246.848 177.575 246.405 177.978C245.976 178.367 245.461 178.679 244.862 178.913C244.275 179.147 243.618 179.264 242.888 179.264ZM250.045 179.03V164.279H251.862V179.03H250.045ZM257.77 179.264C257.079 179.264 256.467 179.14 255.933 178.893C255.412 178.634 255.001 178.283 254.702 177.841C254.402 177.386 254.252 176.867 254.252 176.282C254.252 175.724 254.369 175.224 254.604 174.782C254.851 174.327 255.229 173.944 255.737 173.632C256.258 173.321 256.91 173.1 257.691 172.97L261.599 172.327V173.847L258.102 174.431C257.424 174.548 256.929 174.762 256.617 175.074C256.317 175.386 256.167 175.769 256.167 176.224C256.167 176.653 256.337 177.01 256.675 177.296C257.027 177.581 257.463 177.724 257.984 177.724C258.649 177.724 259.222 177.588 259.704 177.315C260.199 177.029 260.583 176.646 260.857 176.165C261.144 175.685 261.287 175.152 261.287 174.568V171.898C261.287 171.327 261.072 170.865 260.642 170.515C260.225 170.151 259.671 169.969 258.981 169.969C258.382 169.969 257.848 170.125 257.379 170.437C256.923 170.736 256.584 171.138 256.363 171.645L254.78 170.826C254.975 170.346 255.288 169.917 255.718 169.54C256.148 169.151 256.649 168.845 257.222 168.625C257.796 168.404 258.395 168.293 259.02 168.293C259.828 168.293 260.538 168.449 261.15 168.761C261.762 169.06 262.238 169.482 262.577 170.028C262.928 170.56 263.104 171.184 263.104 171.898V179.03H261.326V177.042L261.658 177.159C261.437 177.575 261.137 177.939 260.759 178.25C260.381 178.562 259.939 178.809 259.43 178.991C258.922 179.173 258.369 179.264 257.77 179.264ZM265.922 179.03V168.527H267.7V170.573L267.407 170.398C267.667 169.735 268.084 169.222 268.657 168.858C269.244 168.482 269.928 168.293 270.709 168.293C271.465 168.293 272.136 168.462 272.722 168.8C273.321 169.138 273.79 169.605 274.129 170.203C274.48 170.8 274.656 171.476 274.656 172.229V179.03H272.82V172.814C272.82 172.229 272.715 171.736 272.507 171.333C272.298 170.93 271.999 170.619 271.608 170.398C271.23 170.164 270.794 170.047 270.299 170.047C269.804 170.047 269.361 170.164 268.97 170.398C268.592 170.619 268.293 170.937 268.071 171.353C267.85 171.755 267.739 172.242 267.739 172.814V179.03H265.922ZM282.142 179.264C281.113 179.264 280.194 179.023 279.387 178.543C278.592 178.062 277.967 177.406 277.511 176.575C277.055 175.743 276.827 174.808 276.827 173.769C276.827 172.717 277.055 171.781 277.511 170.963C277.967 170.144 278.592 169.495 279.387 169.014C280.194 168.534 281.113 168.293 282.142 168.293C282.832 168.293 283.477 168.417 284.076 168.664C284.676 168.91 285.203 169.242 285.659 169.657C286.115 170.073 286.447 170.56 286.656 171.119L285.034 171.898C284.786 171.353 284.409 170.911 283.901 170.573C283.393 170.222 282.806 170.047 282.142 170.047C281.504 170.047 280.924 170.209 280.403 170.534C279.895 170.859 279.491 171.301 279.191 171.859C278.892 172.418 278.742 173.061 278.742 173.788C278.742 174.49 278.892 175.126 279.191 175.698C279.491 176.256 279.895 176.698 280.403 177.023C280.924 177.347 281.504 177.51 282.142 177.51C282.806 177.51 283.393 177.341 283.901 177.003C284.409 176.653 284.786 176.191 285.034 175.62L286.656 176.438C286.447 176.984 286.115 177.471 285.659 177.9C285.203 178.315 284.676 178.646 284.076 178.893C283.477 179.14 282.832 179.264 282.142 179.264ZM293.877 179.264C292.861 179.264 291.955 179.023 291.161 178.543C290.366 178.062 289.741 177.406 289.285 176.575C288.829 175.73 288.601 174.788 288.601 173.749C288.601 172.697 288.822 171.762 289.265 170.943C289.721 170.125 290.333 169.482 291.102 169.014C291.884 168.534 292.756 168.293 293.72 168.293C294.502 168.293 295.192 168.436 295.792 168.722C296.404 168.995 296.919 169.372 297.335 169.852C297.765 170.32 298.091 170.859 298.312 171.469C298.547 172.067 298.664 172.691 298.664 173.34C298.664 173.483 298.651 173.645 298.625 173.827C298.612 173.996 298.593 174.158 298.566 174.314H289.93V172.755H297.511L296.651 173.457C296.769 172.781 296.704 172.177 296.456 171.645C296.209 171.112 295.844 170.69 295.362 170.378C294.88 170.067 294.333 169.911 293.72 169.911C293.108 169.911 292.548 170.067 292.04 170.378C291.532 170.69 291.135 171.138 290.848 171.723C290.574 172.294 290.464 172.976 290.516 173.769C290.464 174.535 290.581 175.211 290.867 175.795C291.167 176.367 291.584 176.815 292.118 177.14C292.665 177.451 293.258 177.607 293.896 177.607C294.6 177.607 295.192 177.445 295.674 177.12C296.156 176.795 296.547 176.38 296.847 175.873L298.371 176.653C298.163 177.133 297.837 177.575 297.394 177.978C296.964 178.367 296.45 178.679 295.85 178.913C295.264 179.147 294.606 179.264 293.877 179.264ZM301.034 179.03V168.527H302.812V170.456L302.616 170.183C302.864 169.586 303.242 169.144 303.75 168.858C304.258 168.56 304.877 168.41 305.606 168.41H306.251V170.125H305.333C304.59 170.125 303.991 170.359 303.535 170.826C303.079 171.281 302.851 171.931 302.851 172.775V179.03H301.034Z" fill="white" fill-opacity="0.5"/>
<path d="M326.849 179.03V177.179H327.65C328.34 177.179 328.887 176.977 329.291 176.575C329.695 176.159 329.897 175.6 329.897 174.899V164.513H331.831V174.86C331.831 175.704 331.656 176.438 331.304 177.062C330.965 177.685 330.483 178.172 329.858 178.523C329.233 178.861 328.497 179.03 327.65 179.03H326.849ZM338.548 179.264C337.793 179.264 337.109 179.088 336.497 178.737C335.897 178.387 335.428 177.9 335.09 177.276C334.764 176.64 334.601 175.912 334.601 175.094V168.527H336.418V174.899C336.418 175.418 336.523 175.873 336.731 176.263C336.953 176.653 337.252 176.958 337.63 177.179C338.021 177.399 338.464 177.51 338.959 177.51C339.454 177.51 339.89 177.399 340.268 177.179C340.659 176.958 340.958 176.64 341.167 176.224C341.388 175.808 341.499 175.315 341.499 174.743V168.527H343.336V179.03H341.558V176.984L341.851 177.159C341.603 177.822 341.18 178.341 340.581 178.718C339.994 179.082 339.317 179.264 338.548 179.264ZM346.151 179.03V168.527H347.929V170.573L347.636 170.398C347.897 169.735 348.314 169.222 348.887 168.858C349.473 168.482 350.157 168.293 350.939 168.293C351.694 168.293 352.365 168.462 352.951 168.8C353.55 169.138 354.019 169.605 354.358 170.203C354.71 170.8 354.886 171.476 354.886 172.229V179.03H353.049V172.814C353.049 172.229 352.945 171.736 352.736 171.333C352.528 170.93 352.228 170.619 351.837 170.398C351.46 170.164 351.023 170.047 350.528 170.047C350.033 170.047 349.59 170.164 349.199 170.398C348.822 170.619 348.522 170.937 348.301 171.353C348.079 171.755 347.968 172.242 347.968 172.814V179.03H346.151ZM357.486 179.03V168.527H359.304V179.03H357.486ZM357.486 166.851V164.513H359.304V166.851H357.486ZM367.126 179.264C366.109 179.264 365.191 179.03 364.37 178.562C363.55 178.081 362.898 177.425 362.416 176.594C361.934 175.763 361.693 174.821 361.693 173.769C361.693 172.717 361.928 171.781 362.397 170.963C362.879 170.144 363.53 169.495 364.351 169.014C365.172 168.534 366.096 168.293 367.126 168.293C368.142 168.293 369.06 168.534 369.88 169.014C370.701 169.482 371.346 170.125 371.815 170.943C372.297 171.762 372.538 172.704 372.538 173.769C372.538 174.834 372.29 175.782 371.795 176.614C371.3 177.432 370.642 178.081 369.822 178.562C369.015 179.03 368.116 179.264 367.126 179.264ZM367.126 177.51C367.777 177.51 368.363 177.347 368.884 177.023C369.418 176.698 369.835 176.25 370.134 175.678C370.447 175.107 370.603 174.47 370.603 173.769C370.603 173.054 370.447 172.424 370.134 171.879C369.835 171.32 369.418 170.878 368.884 170.554C368.363 170.216 367.777 170.047 367.126 170.047C366.461 170.047 365.862 170.216 365.328 170.554C364.807 170.878 364.39 171.32 364.077 171.879C363.765 172.424 363.608 173.054 363.608 173.769C363.608 174.47 363.765 175.107 364.077 175.678C364.39 176.25 364.807 176.698 365.328 177.023C365.862 177.347 366.461 177.51 367.126 177.51ZM374.909 179.03V168.527H376.687V170.456L376.491 170.183C376.739 169.586 377.117 169.144 377.625 168.858C378.133 168.56 378.752 168.41 379.481 168.41H380.126V170.125H379.208C378.465 170.125 377.866 170.359 377.41 170.826C376.954 171.281 376.726 171.931 376.726 172.775V179.03H374.909ZM388.011 179.03L383.927 164.513H385.939L389.359 177.296H388.89L392.446 164.513H394.459L397.996 177.296H397.507L400.946 164.513H402.959L398.875 179.03H396.745L393.189 166.306H393.697L390.14 179.03H388.011ZM408.702 179.264C407.686 179.264 406.781 179.023 405.986 178.543C405.192 178.062 404.566 177.406 404.11 176.575C403.654 175.73 403.426 174.788 403.426 173.749C403.426 172.697 403.648 171.762 404.091 170.943C404.547 170.125 405.159 169.482 405.928 169.014C406.709 168.534 407.582 168.293 408.546 168.293C409.328 168.293 410.018 168.436 410.617 168.722C411.23 168.995 411.744 169.372 412.161 169.852C412.591 170.32 412.917 170.859 413.138 171.469C413.373 172.067 413.49 172.691 413.49 173.34C413.49 173.483 413.477 173.645 413.451 173.827C413.438 173.996 413.418 174.158 413.392 174.314H404.755V172.755H412.337L411.477 173.457C411.594 172.781 411.529 172.177 411.282 171.645C411.034 171.112 410.669 170.69 410.187 170.378C409.705 170.067 409.158 169.911 408.546 169.911C407.934 169.911 407.374 170.067 406.866 170.378C406.357 170.69 405.96 171.138 405.674 171.723C405.4 172.294 405.289 172.976 405.341 173.769C405.289 174.535 405.406 175.211 405.693 175.795C405.993 176.367 406.41 176.815 406.944 177.14C407.491 177.451 408.084 177.607 408.722 177.607C409.425 177.607 410.018 177.445 410.5 177.12C410.982 176.795 411.373 176.38 411.672 175.873L413.197 176.653C412.988 177.133 412.663 177.575 412.22 177.978C411.79 178.367 411.275 178.679 410.676 178.913C410.09 179.147 409.432 179.264 408.702 179.264ZM421.311 179.264C420.464 179.264 419.689 179.075 418.986 178.698C418.295 178.322 417.761 177.789 417.383 177.101L417.637 176.789V179.03H415.859V164.279H417.676V170.787L417.403 170.339C417.794 169.716 418.328 169.222 419.005 168.858C419.682 168.482 420.458 168.293 421.33 168.293C422.32 168.293 423.206 168.534 423.988 169.014C424.783 169.495 425.408 170.151 425.864 170.982C426.32 171.801 426.548 172.736 426.548 173.788C426.548 174.814 426.32 175.743 425.864 176.575C425.408 177.406 424.783 178.062 423.988 178.543C423.206 179.023 422.314 179.264 421.311 179.264ZM421.174 177.51C421.838 177.51 422.431 177.347 422.952 177.023C423.473 176.698 423.877 176.256 424.164 175.698C424.463 175.126 424.613 174.49 424.613 173.788C424.613 173.061 424.463 172.424 424.164 171.879C423.877 171.32 423.473 170.878 422.952 170.554C422.431 170.216 421.838 170.047 421.174 170.047C420.51 170.047 419.91 170.209 419.376 170.534C418.855 170.859 418.438 171.307 418.126 171.879C417.826 172.437 417.676 173.074 417.676 173.788C417.676 174.49 417.826 175.126 418.126 175.698C418.438 176.256 418.855 176.698 419.376 177.023C419.91 177.347 420.51 177.51 421.174 177.51ZM432.524 179.03V164.513H437.292C438.764 164.513 440.047 164.812 441.141 165.41C442.236 166.007 443.082 166.851 443.682 167.943C444.281 169.021 444.58 170.294 444.58 171.762C444.58 173.217 444.281 174.49 443.682 175.581C443.082 176.672 442.236 177.523 441.141 178.133C440.047 178.731 438.764 179.03 437.292 179.03H432.524ZM434.439 177.276H437.311C438.393 177.276 439.324 177.049 440.106 176.594C440.9 176.139 441.513 175.503 441.942 174.685C442.372 173.853 442.587 172.879 442.587 171.762C442.587 170.632 442.366 169.657 441.923 168.839C441.493 168.021 440.881 167.391 440.086 166.949C439.304 166.494 438.38 166.267 437.311 166.267H434.439V177.276ZM451.639 179.264C450.623 179.264 449.718 179.023 448.923 178.543C448.129 178.062 447.503 177.406 447.047 176.575C446.591 175.73 446.363 174.788 446.363 173.749C446.363 172.697 446.585 171.762 447.028 170.943C447.484 170.125 448.096 169.482 448.865 169.014C449.646 168.534 450.519 168.293 451.483 168.293C452.265 168.293 452.955 168.436 453.554 168.722C454.167 168.995 454.681 169.372 455.098 169.852C455.528 170.32 455.854 170.859 456.075 171.469C456.31 172.067 456.427 172.691 456.427 173.34C456.427 173.483 456.414 173.645 456.388 173.827C456.375 173.996 456.355 174.158 456.329 174.314H447.692V172.755H455.274L454.414 173.457C454.531 172.781 454.466 172.177 454.219 171.645C453.971 171.112 453.606 170.69 453.124 170.378C452.642 170.067 452.095 169.911 451.483 169.911C450.871 169.911 450.311 170.067 449.803 170.378C449.295 170.69 448.897 171.138 448.611 171.723C448.337 172.294 448.226 172.976 448.278 173.769C448.226 174.535 448.344 175.211 448.63 175.795C448.93 176.367 449.347 176.815 449.881 177.14C450.428 177.451 451.021 177.607 451.659 177.607C452.362 177.607 452.955 177.445 453.437 177.12C453.919 176.795 454.31 176.38 454.61 175.873L456.134 176.653C455.925 177.133 455.6 177.575 455.157 177.978C454.727 178.367 454.212 178.679 453.613 178.913C453.027 179.147 452.369 179.264 451.639 179.264ZM461.535 179.03L457.412 168.527H459.444L462.747 177.412H462.043L465.365 168.527H467.397L463.255 179.03H461.535ZM473.68 179.264C472.663 179.264 471.758 179.023 470.963 178.543C470.169 178.062 469.543 177.406 469.087 176.575C468.632 175.73 468.404 174.788 468.404 173.749C468.404 172.697 468.625 171.762 469.068 170.943C469.524 170.125 470.136 169.482 470.905 169.014C471.686 168.534 472.559 168.293 473.523 168.293C474.305 168.293 474.995 168.436 475.594 168.722C476.207 168.995 476.721 169.372 477.138 169.852C477.568 170.32 477.894 170.859 478.115 171.469C478.35 172.067 478.467 172.691 478.467 173.34C478.467 173.483 478.454 173.645 478.428 173.827C478.415 173.996 478.395 174.158 478.369 174.314H469.732V172.755H477.314L476.454 173.457C476.572 172.781 476.506 172.177 476.259 171.645C476.011 171.112 475.647 170.69 475.165 170.378C474.683 170.067 474.135 169.911 473.523 169.911C472.911 169.911 472.351 170.067 471.843 170.378C471.335 170.69 470.937 171.138 470.651 171.723C470.377 172.294 470.266 172.976 470.319 173.769C470.266 174.535 470.384 175.211 470.67 175.795C470.97 176.367 471.387 176.815 471.921 177.14C472.468 177.451 473.061 177.607 473.699 177.607C474.403 177.607 474.995 177.445 475.477 177.12C475.959 176.795 476.35 176.38 476.65 175.873L478.174 176.653C477.965 177.133 477.64 177.575 477.197 177.978C476.767 178.367 476.252 178.679 475.653 178.913C475.067 179.147 474.409 179.264 473.68 179.264ZM480.836 179.03V164.279H482.654V179.03H480.836ZM490.475 179.264C489.459 179.264 488.54 179.03 487.719 178.562C486.899 178.081 486.247 177.425 485.765 176.594C485.283 175.763 485.042 174.821 485.042 173.769C485.042 172.717 485.277 171.781 485.746 170.963C486.228 170.144 486.879 169.495 487.7 169.014C488.521 168.534 489.445 168.293 490.475 168.293C491.491 168.293 492.409 168.534 493.23 169.014C494.051 169.482 494.695 170.125 495.164 170.943C495.646 171.762 495.887 172.704 495.887 173.769C495.887 174.834 495.64 175.782 495.145 176.614C494.65 177.432 493.992 178.081 493.171 178.562C492.364 179.03 491.465 179.264 490.475 179.264ZM490.475 177.51C491.126 177.51 491.712 177.347 492.233 177.023C492.767 176.698 493.184 176.25 493.484 175.678C493.797 175.107 493.953 174.47 493.953 173.769C493.953 173.054 493.797 172.424 493.484 171.879C493.184 171.32 492.767 170.878 492.233 170.554C491.712 170.216 491.126 170.047 490.475 170.047C489.81 170.047 489.211 170.216 488.677 170.554C488.156 170.878 487.739 171.32 487.426 171.879C487.114 172.424 486.957 173.054 486.957 173.769C486.957 174.47 487.114 175.107 487.426 175.678C487.739 176.25 488.156 176.698 488.677 177.023C489.211 177.347 489.81 177.51 490.475 177.51ZM498.258 182.927V168.527H500.036V170.787L499.802 170.339C500.193 169.716 500.727 169.222 501.404 168.858C502.082 168.482 502.857 168.293 503.73 168.293C504.72 168.293 505.606 168.534 506.387 169.014C507.182 169.495 507.807 170.151 508.263 170.982C508.719 171.801 508.947 172.736 508.947 173.788C508.947 174.814 508.719 175.743 508.263 176.575C507.807 177.406 507.182 178.062 506.387 178.543C505.606 179.023 504.713 179.264 503.71 179.264C502.863 179.264 502.088 179.075 501.385 178.698C500.694 178.322 500.16 177.789 499.782 177.101L500.076 176.789V182.927H498.258ZM503.573 177.51C504.238 177.51 504.83 177.347 505.351 177.023C505.873 176.698 506.276 176.256 506.563 175.698C506.863 175.126 507.012 174.49 507.012 173.788C507.012 173.061 506.863 172.424 506.563 171.879C506.276 171.32 505.873 170.878 505.351 170.554C504.83 170.216 504.238 170.047 503.573 170.047C502.909 170.047 502.31 170.209 501.776 170.534C501.254 170.859 500.838 171.307 500.525 171.879C500.225 172.437 500.076 173.074 500.076 173.788C500.076 174.49 500.225 175.126 500.525 175.698C500.838 176.256 501.254 176.698 501.776 177.023C502.31 177.347 502.909 177.51 503.573 177.51ZM516.175 179.264C515.159 179.264 514.254 179.023 513.459 178.543C512.665 178.062 512.039 177.406 511.583 176.575C511.127 175.73 510.899 174.788 510.899 173.749C510.899 172.697 511.121 171.762 511.564 170.943C512.02 170.125 512.632 169.482 513.401 169.014C514.182 168.534 515.055 168.293 516.019 168.293C516.801 168.293 517.491 168.436 518.09 168.722C518.703 168.995 519.217 169.372 519.634 169.852C520.064 170.32 520.39 170.859 520.611 171.469C520.846 172.067 520.963 172.691 520.963 173.34C520.963 173.483 520.95 173.645 520.924 173.827C520.911 173.996 520.891 174.158 520.865 174.314H512.228V172.755H519.81L518.95 173.457C519.067 172.781 519.002 172.177 518.755 171.645C518.507 171.112 518.142 170.69 517.66 170.378C517.178 170.067 516.631 169.911 516.019 169.911C515.407 169.911 514.847 170.067 514.338 170.378C513.83 170.69 513.433 171.138 513.147 171.723C512.873 172.294 512.762 172.976 512.814 173.769C512.762 174.535 512.879 175.211 513.166 175.795C513.466 176.367 513.883 176.815 514.417 177.14C514.964 177.451 515.557 177.607 516.195 177.607C516.898 177.607 517.491 177.445 517.973 177.12C518.455 176.795 518.846 176.38 519.145 175.873L520.67 176.653C520.461 177.133 520.136 177.575 519.693 177.978C519.263 178.367 518.748 178.679 518.149 178.913C517.563 179.147 516.905 179.264 516.175 179.264ZM523.332 179.03V168.527H525.11V170.456L524.915 170.183C525.162 169.586 525.54 169.144 526.048 168.858C526.556 168.56 527.175 168.41 527.905 168.41H528.549V170.125H527.631C526.888 170.125 526.289 170.359 525.833 170.826C525.377 171.281 525.149 171.931 525.149 172.775V179.03H523.332Z" fill="white" fill-opacity="0.5"/>
<path d="M554.229 179.264C553.174 179.264 552.236 179.043 551.415 178.601C550.607 178.159 549.976 177.555 549.52 176.789C549.077 176.01 548.855 175.126 548.855 174.139V164.513H550.79V174.1C550.79 174.762 550.933 175.354 551.22 175.873C551.519 176.38 551.923 176.776 552.431 177.062C552.952 177.347 553.551 177.49 554.229 177.49C554.906 177.49 555.499 177.347 556.007 177.062C556.528 176.776 556.932 176.38 557.219 175.873C557.518 175.354 557.668 174.762 557.668 174.1V164.513H559.603V174.139C559.603 175.126 559.375 176.01 558.919 176.789C558.476 177.555 557.85 178.159 557.043 178.601C556.235 179.043 555.297 179.264 554.229 179.264ZM562.75 179.03V164.513H564.665V179.03H562.75ZM566.417 181.368L572.983 165.312H575.035L568.469 181.368H566.417ZM582.071 179.264C581.016 179.264 580.078 179.043 579.257 178.601C578.449 178.159 577.818 177.555 577.362 176.789C576.919 176.01 576.697 175.126 576.697 174.139V164.513H578.632V174.1C578.632 174.762 578.775 175.354 579.062 175.873C579.361 176.38 579.765 176.776 580.273 177.062C580.794 177.347 581.393 177.49 582.071 177.49C582.748 177.49 583.341 177.347 583.849 177.062C584.37 176.776 584.774 176.38 585.061 175.873C585.36 175.354 585.51 174.762 585.51 174.1V164.513H587.445V174.139C587.445 175.126 587.217 176.01 586.761 176.789C586.318 177.555 585.692 178.159 584.885 178.601C584.077 179.043 583.139 179.264 582.071 179.264ZM589.184 179.03L593.932 171.664L589.301 164.513H591.489L595.417 170.612H594.596L598.524 164.513H600.713L596.081 171.664L600.83 179.03H598.641L594.596 172.717H595.417L591.353 179.03H589.184ZM606.049 179.03V164.513H610.817C612.289 164.513 613.572 164.812 614.666 165.41C615.76 166.007 616.607 166.851 617.206 167.943C617.806 169.021 618.105 170.294 618.105 171.762C618.105 173.217 617.806 174.49 617.206 175.581C616.607 176.672 615.76 177.523 614.666 178.133C613.572 178.731 612.289 179.03 610.817 179.03H606.049ZM607.964 177.276H610.836C611.917 177.276 612.849 177.049 613.63 176.594C614.425 176.139 615.037 175.503 615.466 174.685C615.897 173.853 616.112 172.879 616.112 171.762C616.112 170.632 615.891 169.657 615.448 168.839C615.018 168.021 614.406 167.391 613.611 166.949C612.829 166.494 611.904 166.267 610.836 166.267H607.964V177.276ZM625.163 179.264C624.147 179.264 623.241 179.023 622.447 178.543C621.652 178.062 621.027 177.406 620.571 176.575C620.115 175.73 619.887 174.788 619.887 173.749C619.887 172.697 620.108 171.762 620.551 170.943C621.007 170.125 621.619 169.482 622.388 169.014C623.17 168.534 624.042 168.293 625.006 168.293C625.788 168.293 626.478 168.436 627.078 168.722C627.69 168.995 628.204 169.372 628.621 169.852C629.051 170.32 629.377 170.859 629.598 171.469C629.833 172.067 629.95 172.691 629.95 173.34C629.95 173.483 629.937 173.645 629.911 173.827C629.898 173.996 629.878 174.158 629.852 174.314H621.215V172.755H628.797L627.937 173.457C628.055 172.781 627.99 172.177 627.742 171.645C627.495 171.112 627.13 170.69 626.648 170.378C626.166 170.067 625.619 169.911 625.006 169.911C624.394 169.911 623.834 170.067 623.326 170.378C622.818 170.69 622.42 171.138 622.134 171.723C621.86 172.294 621.75 172.976 621.802 173.769C621.75 174.535 621.867 175.211 622.153 175.795C622.453 176.367 622.87 176.815 623.404 177.14C623.951 177.451 624.544 177.607 625.182 177.607C625.886 177.607 626.478 177.445 626.96 177.12C627.442 176.795 627.833 176.38 628.133 175.873L629.657 176.653C629.449 177.133 629.123 177.575 628.68 177.977C628.25 178.367 627.735 178.679 627.136 178.913C626.55 179.147 625.892 179.264 625.163 179.264ZM636.091 179.264C635.036 179.264 634.117 179.004 633.336 178.484C632.554 177.965 632 177.263 631.675 176.38L633.121 175.678C633.42 176.302 633.831 176.795 634.352 177.159C634.873 177.523 635.452 177.705 636.091 177.705C636.664 177.705 637.139 177.568 637.517 177.296C637.895 177.023 638.084 176.666 638.084 176.224C638.084 175.912 637.993 175.665 637.81 175.483C637.641 175.289 637.432 175.139 637.185 175.035C636.937 174.918 636.71 174.834 636.501 174.782L634.918 174.334C633.967 174.061 633.27 173.671 632.827 173.165C632.398 172.658 632.183 172.067 632.183 171.392C632.183 170.768 632.339 170.229 632.652 169.774C632.977 169.307 633.414 168.943 633.961 168.683C634.521 168.423 635.146 168.293 635.837 168.293C636.762 168.293 637.589 168.527 638.318 168.995C639.061 169.462 639.588 170.118 639.901 170.963L638.416 171.645C638.182 171.099 637.83 170.671 637.361 170.359C636.892 170.034 636.364 169.872 635.778 169.872C635.244 169.872 634.821 170.008 634.508 170.281C634.195 170.541 634.039 170.872 634.039 171.275C634.039 171.573 634.117 171.82 634.273 172.015C634.43 172.197 634.619 172.34 634.84 172.444C635.062 172.535 635.276 172.613 635.485 172.678L637.204 173.184C638.064 173.431 638.729 173.814 639.198 174.334C639.68 174.853 639.921 175.477 639.921 176.204C639.921 176.789 639.758 177.315 639.432 177.783C639.106 178.25 638.657 178.614 638.084 178.874C637.511 179.134 636.846 179.264 636.091 179.264ZM642.3 179.03V168.527H644.117V179.03H642.3ZM642.3 166.851V164.513H644.117V166.851H642.3ZM651.959 183.316C651.217 183.316 650.526 183.2 649.888 182.966C649.263 182.732 648.722 182.407 648.266 181.991C647.823 181.589 647.484 181.115 647.25 180.569L648.95 179.79C649.132 180.283 649.478 180.699 649.986 181.037C650.507 181.387 651.158 181.563 651.94 181.563C652.539 181.563 653.08 181.446 653.562 181.212C654.057 180.991 654.447 180.653 654.734 180.199C655.021 179.757 655.164 179.218 655.164 178.582V176.224L655.496 176.575C655.131 177.289 654.604 177.835 653.913 178.211C653.236 178.588 652.487 178.776 651.666 178.776C650.676 178.776 649.79 178.549 649.009 178.094C648.227 177.627 647.615 176.997 647.172 176.204C646.729 175.399 646.507 174.509 646.507 173.535C646.507 172.548 646.729 171.658 647.172 170.865C647.615 170.073 648.22 169.45 648.989 168.995C649.771 168.527 650.657 168.293 651.647 168.293C652.467 168.293 653.21 168.482 653.874 168.858C654.552 169.222 655.092 169.729 655.496 170.378L655.223 170.865V168.527H657.001V178.582C657.001 179.491 656.786 180.303 656.356 181.017C655.926 181.732 655.327 182.29 654.558 182.693C653.803 183.109 652.936 183.316 651.959 183.316ZM651.822 177.023C652.448 177.023 653.008 176.867 653.503 176.555C654.011 176.243 654.415 175.828 654.714 175.308C655.014 174.775 655.164 174.184 655.164 173.535C655.164 172.898 655.014 172.314 654.714 171.781C654.415 171.249 654.011 170.826 653.503 170.515C653.008 170.203 652.448 170.047 651.822 170.047C651.184 170.047 650.604 170.203 650.083 170.515C649.562 170.826 649.152 171.249 648.852 171.781C648.566 172.301 648.422 172.885 648.422 173.535C648.422 174.184 648.566 174.775 648.852 175.308C649.152 175.828 649.556 176.243 650.064 176.555C650.585 176.867 651.171 177.023 651.822 177.023ZM659.818 179.03V168.527H661.596V170.573L661.303 170.398C661.563 169.735 661.98 169.222 662.553 168.858C663.14 168.482 663.824 168.293 664.605 168.293C665.361 168.293 666.032 168.462 666.618 168.8C667.217 169.138 667.686 169.605 668.025 170.203C668.377 170.8 668.552 171.476 668.552 172.229V179.03H666.716V172.814C666.716 172.229 666.611 171.736 666.403 171.333C666.195 170.93 665.895 170.619 665.504 170.398C665.126 170.164 664.69 170.047 664.195 170.047C663.7 170.047 663.257 170.164 662.866 170.398C662.488 170.619 662.189 170.937 661.967 171.353C661.746 171.755 661.635 172.242 661.635 172.814V179.03H659.818ZM675.999 179.264C674.983 179.264 674.078 179.023 673.283 178.543C672.488 178.062 671.863 177.406 671.407 176.575C670.951 175.73 670.723 174.788 670.723 173.749C670.723 172.697 670.944 171.762 671.387 170.943C671.843 170.125 672.456 169.482 673.224 169.014C674.006 168.534 674.879 168.293 675.843 168.293C676.624 168.293 677.315 168.436 677.914 168.722C678.526 168.995 679.041 169.372 679.458 169.852C679.888 170.32 680.213 170.859 680.435 171.469C680.669 172.067 680.786 172.691 680.786 173.34C680.786 173.483 680.773 173.645 680.747 173.827C680.734 173.996 680.715 174.158 680.689 174.314H672.052V172.755H679.634L678.774 173.457C678.891 172.781 678.826 172.177 678.578 171.645C678.331 171.112 677.966 170.69 677.484 170.378C677.002 170.067 676.455 169.911 675.843 169.911C675.23 169.911 674.67 170.067 674.162 170.378C673.654 170.69 673.257 171.138 672.97 171.723C672.697 172.294 672.586 172.976 672.638 173.769C672.586 174.535 672.703 175.211 672.99 175.795C673.289 176.367 673.706 176.815 674.24 177.14C674.787 177.451 675.38 177.607 676.019 177.607C676.722 177.607 677.315 177.445 677.797 177.12C678.279 176.795 678.67 176.38 678.969 175.873L680.493 176.653C680.285 177.133 679.959 177.575 679.516 177.977C679.086 178.367 678.572 178.679 677.973 178.913C677.386 179.147 676.729 179.264 675.999 179.264ZM683.156 179.03V168.527H684.934V170.456L684.739 170.183C684.986 169.586 685.364 169.144 685.872 168.858C686.38 168.56 686.999 168.41 687.728 168.41H688.373V170.125H687.455C686.712 170.125 686.113 170.359 685.657 170.826C685.201 171.281 684.973 171.931 684.973 172.775V179.03H683.156Z" fill="white" fill-opacity="0.5"/>
<path d="M316.916 175.782C318.265 175.782 319.358 174.692 319.358 173.347C319.358 172.001 318.265 170.911 316.916 170.911C315.567 170.911 314.473 172.001 314.473 173.347C314.473 174.692 315.567 175.782 316.916 175.782Z" fill="white" fill-opacity="0.5"/>
<path d="M538.375 175.782C539.724 175.782 540.818 174.692 540.818 173.347C540.818 172.001 539.724 170.911 538.375 170.911C537.026 170.911 535.932 172.001 535.932 173.347C535.932 174.692 537.026 175.782 538.375 175.782Z" fill="white" fill-opacity="0.5"/>
<path d="M374.723 216.376C377.421 216.376 379.608 214.195 379.608 211.505C379.608 208.815 377.421 206.634 374.723 206.634C372.025 206.634 369.838 208.815 369.838 211.505C369.838 214.195 372.025 216.376 374.723 216.376Z" fill="url(#paint1_linear_1246_140)"/>
<path d="M394.407 216.376L397.755 206.699H400.047L403.395 216.376H401.467L400.777 214.298H397.025L396.322 216.376H394.407ZM397.533 212.739H400.269L398.654 207.92H399.149L397.533 212.739ZM406.483 216.376L403.096 206.699H405.024L407.681 214.713H407.304L409.961 206.699H411.889L408.515 216.376H406.483ZM411.594 216.376L414.942 206.699H417.235L420.583 216.376H418.655L417.964 214.298H414.213L413.509 216.376H411.594ZM414.721 212.739H417.456L415.841 207.92H416.336L414.721 212.739ZM421.663 216.376V206.699H423.434V216.376H421.663ZM425.3 216.376V206.699H427.072V214.817H431.228V216.376H425.3ZM431.579 216.376L434.927 206.699H437.22L440.568 216.376H438.64L437.95 214.298H434.198L433.494 216.376H431.579ZM434.706 212.739H437.442L435.826 207.92H436.321L434.706 212.739ZM441.648 216.376V206.699H445.738C446.381 206.699 446.928 206.811 447.38 207.036C447.84 207.253 448.192 207.565 448.435 207.972C448.687 208.37 448.812 208.855 448.812 209.427C448.812 209.868 448.692 210.284 448.448 210.674C448.213 211.055 447.835 211.371 447.314 211.622V210.803C447.793 210.985 448.171 211.211 448.448 211.479C448.726 211.747 448.922 212.046 449.034 212.375C449.148 212.704 449.203 213.051 449.203 213.414C449.203 214.341 448.896 215.069 448.278 215.597C447.671 216.116 446.824 216.376 445.738 216.376H441.648ZM443.419 214.817H445.921C446.381 214.817 446.746 214.692 447.015 214.441C447.293 214.181 447.432 213.839 447.432 213.414C447.432 212.99 447.293 212.648 447.015 212.388C446.746 212.128 446.381 211.999 445.921 211.999H443.419V214.817ZM443.419 210.453H445.829C446.194 210.453 446.486 210.349 446.702 210.141C446.92 209.925 447.028 209.647 447.028 209.31C447.028 208.972 446.92 208.703 446.702 208.504C446.486 208.305 446.194 208.205 445.829 208.205H443.419V210.453ZM450.656 216.376V206.699H452.427V214.817H456.583V216.376H450.656ZM457.728 216.376V206.699H464.176V208.257H459.5V210.739H463.916V212.297H459.5V214.817H464.176V216.376H457.728ZM467.791 216.376V206.699H474.266V208.257H469.563V210.933H473.679V212.492H469.563V216.376H467.791ZM480.079 216.532C479.366 216.532 478.701 216.407 478.086 216.155C477.469 215.904 476.93 215.553 476.47 215.103C476.01 214.653 475.65 214.125 475.389 213.518C475.137 212.903 475.011 212.241 475.011 211.531C475.011 210.812 475.137 210.15 475.389 209.543C475.64 208.937 475.997 208.409 476.457 207.959C476.917 207.508 477.456 207.162 478.073 206.919C478.688 206.668 479.358 206.543 480.079 206.543C480.799 206.543 481.468 206.668 482.085 206.919C482.701 207.171 483.24 207.521 483.701 207.972C484.16 208.413 484.516 208.937 484.769 209.543C485.029 210.15 485.16 210.812 485.16 211.531C485.16 212.241 485.029 212.903 484.769 213.518C484.508 214.125 484.147 214.653 483.687 215.103C483.227 215.553 482.688 215.904 482.072 216.155C481.463 216.407 480.799 216.532 480.079 216.532ZM480.079 214.921C480.556 214.921 480.994 214.839 481.395 214.675C481.794 214.501 482.141 214.263 482.437 213.96C482.74 213.657 482.971 213.298 483.127 212.882C483.292 212.466 483.375 212.016 483.375 211.531C483.375 211.046 483.292 210.6 483.127 210.193C482.971 209.777 482.74 209.418 482.437 209.115C482.141 208.803 481.794 208.565 481.395 208.4C480.994 208.236 480.556 208.153 480.079 208.153C479.61 208.153 479.175 208.236 478.776 208.4C478.376 208.565 478.024 208.803 477.721 209.115C477.425 209.418 477.195 209.777 477.031 210.193C476.865 210.6 476.783 211.046 476.783 211.531C476.783 212.016 476.865 212.466 477.031 212.882C477.195 213.298 477.425 213.657 477.721 213.96C478.024 214.263 478.376 214.501 478.776 214.675C479.175 214.839 479.61 214.921 480.079 214.921ZM486.734 216.376V206.699H490.343C491.002 206.699 491.585 206.82 492.088 207.062C492.601 207.296 493 207.642 493.287 208.102C493.573 208.552 493.717 209.102 493.717 209.751C493.717 210.418 493.555 210.985 493.235 211.453C492.922 211.921 492.497 212.267 491.958 212.492L494.186 216.376H492.179L489.796 212.128L490.942 212.804H488.506V216.376H486.734ZM488.506 211.245H490.369C490.69 211.245 490.968 211.185 491.202 211.063C491.437 210.933 491.619 210.756 491.75 210.531C491.88 210.305 491.945 210.046 491.945 209.751C491.945 209.448 491.88 209.188 491.75 208.972C491.619 208.747 491.437 208.574 491.202 208.452C490.968 208.322 490.69 208.257 490.369 208.257H488.506V211.245ZM497.662 216.376V206.699H499.434V210.92H503.563V206.699H505.348V216.376H503.563V212.479H499.434V216.376H497.662ZM507.216 216.376V206.699H508.988V216.376H507.216ZM510.854 216.376V206.699H514.462C515.123 206.699 515.705 206.82 516.208 207.062C516.721 207.296 517.12 207.642 517.406 208.102C517.693 208.552 517.836 209.102 517.836 209.751C517.836 210.418 517.677 210.985 517.354 211.453C517.042 211.921 516.617 212.267 516.078 212.492L518.305 216.376H516.299L513.915 212.128L515.061 212.804H512.625V216.376H510.854ZM512.625 211.245H514.488C514.811 211.245 515.088 211.185 515.322 211.063C515.556 210.933 515.739 210.756 515.869 210.531C515.999 210.305 516.065 210.046 516.065 209.751C516.065 209.448 515.999 209.188 515.869 208.972C515.739 208.747 515.556 208.574 515.322 208.452C515.088 208.322 514.811 208.257 514.488 208.257H512.625V211.245ZM519.468 216.376V206.699H525.916V208.257H521.24V210.739H525.656V212.297H521.24V214.817H525.916V216.376H519.468Z" fill="url(#paint2_linear_1246_140)"/>
<defs>
<linearGradient id="paint0_linear_1246_140" x1="399" y1="108" x2="641" y2="108" gradientUnits="userSpaceOnUse">
<stop stop-color="#473B7B"/>
<stop offset="1" stop-color="#30D2BE"/>
</linearGradient>
<linearGradient id="paint1_linear_1246_140" x1="370" y1="211.5" x2="526" y2="212" gradientUnits="userSpaceOnUse">
<stop stop-color="#473B7B"/>
<stop offset="1" stop-color="#30D2BE"/>
</linearGradient>
<linearGradient id="paint2_linear_1246_140" x1="370" y1="211.5" x2="526" y2="212" gradientUnits="userSpaceOnUse">
<stop stop-color="#473B7B"/>
<stop offset="1" stop-color="#30D2BE"/>
</linearGradient>
</defs>
</svg>
